<svg xmlns:xlink="http://www.w3.org/1999/xlink" xmlns="http://www.w3.org/2000/svg" viewBox="0 0 370.1851851851851 55.25309307806689" preserveAspectRatio="xMidYMid meet" class="css-ii5z8m" id="gebggegf" width="370.1851851851851"  height="55.25309307806689" ><defs id="SvgjsDefs1422"></defs><g id="SvgjsG1423" featurekey="symbolFeature-0" transform="matrix(0.682980124053423,0,0,0.682980124053423,-1.6391523628622755,-6.898099513475813)" fill="url(&quot;#symbol-foil0.7&quot;)"><path xmlns="http://www.w3.org/2000/svg" d="M17.9,34.4c22.9,12,27.1,23.2,27.1,23.2s-2.9,2.9-4.5,5.2C55.1,48.9,72.9,50.1,73.9,50c1-0.1,1.6,1.9,0,1.9  c-6.4,0.5-20.5,3.2-27,10.8c-5.9,6.8-3.6,24.4-3,27.9c0.1,0.4-0.1,0.4-0.4,0.4c-2.2,0-14.8,0-15.2,0c-0.4,0-0.5-0.2-0.5-0.4  c-0.1-6.1,8.2-13.3,7.4-29.1C34.3,45.3,17,35.9,17,35.9C16.4,35.5,17,33.9,17.9,34.4z M15.1,18.4c0,0-3.3,6.1-2.4,10.2  c0.8,3.6,3.2,5,6,3.7c1.3-0.7-1.5-7.8-2.3-9.7c3.4,5.3,2.7,9.1,3.7,9.2c2.8,0,4.4-2.8,2.9-6.6C21.5,21.3,15.1,18.4,15.1,18.4z   M4.3,38.6c0,0,4.5,3.3,7.7,3c2.9-0.3,4.3-2,3.5-4.4c-0.4-1.1-6.3,0.3-7.9,0.8c4.5-2.2,7.4-1.1,7.6-1.9c0.3-2.2-1.7-3.7-4.9-3  C7.2,33.9,4.3,38.6,4.3,38.6z M15.3,49.4c0,0,5-0.6,7-2.8c1.8-2,1.6-4-0.3-5.1c-1-0.5-4,4.1-4.8,5.4c1.7-4.3,4.3-5.4,3.9-6  c-1.1-1.7-3.5-1.4-5.1,1C14.3,44.4,15.3,49.4,15.3,49.4z M2.4,51.9c0,0,5.3,1.2,8.1-0.3c2.5-1.4,3.1-3.5,1.5-5.3  c-0.8-0.8-5.5,2.7-6.8,3.7c3.2-3.7,6.3-3.9,6.1-4.7c-0.6-2.1-3-2.7-5.5-0.8C3.2,46.6,2.4,51.9,2.4,51.9z M2.4,26  c0,0,1.4,4.1,3.6,5.3c2,1.1,3.6,0.6,4.2-1.2c0.2-0.9-4.2-2.5-5.4-3c3.8,0.6,5.3,2.6,5.7,2.1c1.2-1.3,0.5-3.2-1.8-4.1  C6.4,24.3,2.4,26,2.4,26z M19,59.3c0,0,6,0.2,8.8-2.1c2.5-2.1,2.6-4.5,0.5-6.1c-1.1-0.7-5.4,4.2-6.6,5.6c2.7-4.8,6-5.7,5.6-6.5  c-1.1-2.2-3.9-2.3-6.2,0.3C18.7,53.2,19,59.3,19,59.3z M35.5,24.2c0,0-6.9,2.8-8.9,6.8c-1.8,3.6-0.7,6.4,2.5,7.2  c1.5,0.3,4-7.5,4.7-9.7c-0.7,6.8-4,9.4-3.1,10.1c2.3,1.9,5.5,0.6,6.9-3.5C38.9,30.9,35.5,24.2,35.5,24.2z M26.9,10.4  c0,0-3.7,3.8-3.9,7c-0.2,2.8,1.3,4.4,3.7,4c1.1-0.3,0.5-6.1,0.3-7.7c1.4,4.6,0.1,7.3,0.8,7.5c2.1,0.6,3.8-1.2,3.5-4.3  C31,13.8,26.9,10.4,26.9,10.4z M46.7,36.8c0,0-5.3-0.1-7.8,1.9c-2.2,1.8-2.3,4-0.4,5.4c0.9,0.6,4.8-3.7,5.8-5c-2.4,4.2-5.3,5-5,5.7  c1,1.9,3.4,2,5.5-0.3C47,42.2,46.7,36.8,46.7,36.8z M51.9,47.6c0,0-4.1-1.5-6.5-0.5c-2.2,0.9-2.8,2.5-1.7,4.1  c0.6,0.7,4.7-1.7,5.8-2.4c-2.9,2.7-5.4,2.6-5.3,3.2c0.3,1.7,2.2,2.4,4.4,1.2C50.8,51.8,51.9,47.6,51.9,47.6z M52.5,22.9  c0,0-6.6-0.2-9.7,2.3c-2.7,2.3-2.9,4.9-0.5,6.7c1.2,0.8,6-4.6,7.2-6.1c-3,5.2-6.6,6.2-6.2,7.1c1.2,2.4,4.3,2.5,6.8-0.4  C52.9,29.5,52.5,22.9,52.5,22.9z M41,10.1c0,0-5.3,3.7-6.2,7.5c-0.8,3.4,0.6,5.5,3.5,5.6c1.4-0.1,2-7.1,2.1-9.1  c0.7,5.9-1.5,8.8-0.7,9.2c2.3,1.2,4.8-0.5,5.2-4.3C45.1,15.2,41,10.1,41,10.1z M69.8,47.8c0,0.1,0.1,0.6,0.1,0.7l0,0.6L69.2,49h-0.4  l0-0.7c0-0.2-0.1-0.3-0.1-0.3l0-0.1L67.9,48c-0.4,0-0.8,0.1-0.8,0.1c0,0,0,0.7,0.2,1.3c0,0.1,0,0.1-0.3,0.1l-0.7-0.1l-0.1-1L66.1,48  l-0.3,0c-6.9-0.4-11-5.7-12.1-7.1c-1.1-1.4-2-3.2-2.3-4.8c-0.1-0.6,0.1-1.4,0.4-1.4c0.2,0,0.2,0.1,0.5,0.6c0.5,1,1.3,1.6,2.3,1.8  c1.2,0.2,2.4-0.1,3.3-0.9c0.5-0.5,0.6-0.8,0.7-1.3c0.1-0.5,0.3-1.1,0.4-1.4c0.7-1.9,1.9-3.4,3.3-4.4c0.3-0.2,0.4-0.3,0.3-0.4  c0-0.1-0.4-0.5-0.8-0.9c-0.9-1-0.9-1.1-0.9-1.3c0-0.3,0.1-0.4,0.3-0.5c0.2-0.1,0.3-0.1,1.5,0.5c0.5,0.3,1,0.4,1,0.4  c0,0-0.1-0.2-0.3-0.5c-0.3-0.5-0.4-0.8-0.2-1c0.1-0.1,0.2-0.2,0.4-0.2c0.3,0,0.3,0,1.2,0.6c0.4,0.3,0.8,0.6,0.9,0.6l0.2,0.1l0-0.4  c0-0.4,0-0.7,0.2-0.8c0.2-0.1,0.5,0.1,1.8,1.2l1.2,1l0.5,0.1c1.1,0.3,2.1,0.7,3.1,1.3c0.7,0.4,1,0.7,1.7,1.4l0.6,0.6l1.7-0.1  c1.8-0.1,2-0.1,2.1,0.1c0.1,0.2,0.1,0.4-0.1,0.6c-0.1,0.1-0.5,0.7-1,1.4l-0.9,1.2l0.2,0.5c0.6,1.8,0.7,3.8,0.3,5.8  c-0.4,2.1-1,3.3-2.4,4.7c-1.4,1.4-2.9,2.3-4.7,2.6L69.8,47.8z M71.1,31.2c-0.2,0.5,0.1,1.7,0.5,2.1c1,0.8,1.3-0.9,0.4-2  C71.7,31,71.3,30.9,71.1,31.2z M87.1,19.8c0,2.9-0.1,5.8,0,8.7c-0.2,0.1-0.4,0-0.6,0c-1-0.2-2.2,0.1-2.8,1c-0.5,0.6-0.4,1.6,0.1,2.2  c0.8,0.9,2.2,1,3.2,0.7c0.7-0.3,1.4-0.9,1.5-1.7c0.1-2.7,0-5.3,0-8c2.4-0.3,4.9-0.6,7.3-0.8c0.1,1.9,0.1,3.8,0,5.7  c-1-0.3-2.3-0.2-3.1,0.5c-0.7,0.6-0.8,1.8-0.2,2.5c1,1.1,2.8,1.2,4,0.3c0.5-0.3,0.8-0.9,0.8-1.5c0-3.6,0-7.1,0-10.7  c-0.5,0-1.1,0.1-1.6,0.1C92.9,19.2,90,19.5,87.1,19.8z" fill="#F7ED9C"></path></g><g id="SvgjsG1424" featurekey="nameFeature-0" transform="matrix(1.0526545513451182,0,0,1.0526545513451182,82.89469089730976,3.9472584547103153)" fill="url(&quot;#symbol-foil0.4&quot;)"><path d="M3.8 17.2 l0 -7.6 l7.2 0 l0 28.8 l-3.2 0 l0 1.6 l15.6 0 l0 -1.6 l-3.2 0 l0 -28.8 l7.2 0 l0 7.6 l1.8 0 l0 -9.2 l-27.2 0 l0 9.2 l1.8 0 z M54.4 18.92 l-1.24 1.24 l-2.56 -2.56 l-3.4 0 l-2.8 2.8 l0 18 l3.2 0 l0 1.6 l-8.68 0 l-3.72 -3.72 l0 -18.68 l-3.2 0 l0 -1.6 l8.68 0 l2.84 2.8 l2.8 -2.8 l5.16 0 z M60.12 40 l8.76 0 l2.44 -2.44 l2.4 2.44 l9.08 0 l0 -1.6 l-3.2 0 l0 -19.08 l-3.32 -3.32 l-15.16 0 l-3.32 3.32 l0 4.68 l8.4 0 l0 -6.4 l4.2 0 l0 9.6 l-10.28 0 l-3.32 3.32 l0 6.16 z M66.2 28.8 l4.2 0 l0 7.2 l-2.4 2.4 l-1.8 0 l0 -9.6 z M113.56 17.6 l-2.72 0 l-7.28 22.4 l-9.16 0 l-7.28 -22.4 l-2.72 0 l0 -1.6 l14.76 0 l0 1.6 l-2.88 0 l6.32 19.44 l6.32 -19.44 l-2.88 0 l0 -1.6 l7.52 0 l0 1.6 z M120.08 40 l15.56 0 l3.72 -3.72 l-1.24 -1.24 l-3.36 3.36 l-9.2 0 l0 -8.4 l9.88 0 l3.72 -3.72 l0 -6.56 l-3.72 -3.72 l-15.36 0 l-3.72 3.72 l0 16.56 z M125.56 17.6 l4.4 0 l0 10.8 l-4.4 0 l0 -10.8 z M155.56 38.4 l0 1.6 l-8.28 0 l-3.72 -3.72 l0 -29.88 l-2.8 0 l0 -1.6 l8.28 0 l3.72 3.72 l0 29.88 l2.8 0 z M197.95999999999998 38.4 l0 1.6 l-9.08 0 l-3.32 -3.32 l0 -19.08 l-2.8 0 l-2.8 2.8 l0 18 l2 0 l0 1.6 l-14.4 0 l0 -1.6 l3.2 0 l0 -20.8 l-3.2 0 l0 -1.6 l8.68 0 l2.84 2.8 l2.8 -2.8 l9.16 0 l3.72 3.72 l0 18.68 l3.2 0 z M204.48 40 l15.56 0 l3.72 -3.72 l-1.24 -1.24 l-3.36 3.36 l-9.2 0 l0 -8.4 l9.88 0 l3.72 -3.72 l0 -6.56 l-3.72 -3.72 l-15.36 0 l-3.72 3.72 l0 16.56 z M209.95999999999998 17.6 l4.4 0 l0 10.8 l-4.4 0 l0 -10.8 z M225.56 16 l14.52 0 l0 1.6 l-2.4 0 l4.4 6.88 l4.8 -6.88 l-2.08 0 l0 -1.6 l7.12 0 l0 1.6 l-2.88 0 l-5.96 8.48 l7.84 12.32 l2.6 0 l0 1.6 l-15.04 0 l0 -1.6 l2.92 0 l-5.04 -7.88 l-5.52 7.88 l2.88 0 l0 1.6 l-7.76 0 l0 -1.6 l2.72 0 l6.68 -9.52 l-7.2 -11.28 l-2.6 0 l0 -1.6 z M272.92 36.28 l-3.72 3.72 l-7.96 0 l-3.72 -3.72 l0 -25.48 l-2.8 0 l0 -1.6 l8.08 0 l3.32 3.32 l0 5.88 l5.6 0 l0 1.6 l-5.6 0 l0 18.4 l2.2 0 l3.36 -3.36 z" fill="#F7ED9C"></path></g></svg>